<?xml version="1.0" encoding="utf-8"?>
<!-- Generator: Adobe Illustrator 26.5.0, SVG Export Plug-In . SVG Version: 6.00 Build 0)  -->
<svg version="1.1" id="Capa_1" xmlns="http://www.w3.org/2000/svg" xmlns:xlink="http://www.w3.org/1999/xlink" x="0px" y="0px"
	 viewBox="0 0 199.6 199.6" style="enable-background:new 0 0 199.6 199.6;" xml:space="preserve">
<style type="text/css">
	.st0{fill:#FFFFFF;}
	.st1{fill-rule:evenodd;clip-rule:evenodd;fill:#FFFFFF;}
</style>
<g id="Instagram">
	<g>
		<path d="M839-243c55.2,0,100,44.8,100,100S894.2-43,839-43S739-87.8,739-143S783.8-243,839-243"/>
	</g>
	<path class="st0" d="M839-187.6c14.5,0,16.2,0.1,22,0.3c5.3,0.2,8.2,1.1,10.1,1.9c2.5,1,4.3,2.2,6.3,4.1c1.9,1.9,3.1,3.7,4.1,6.3
		c0.7,1.9,1.6,4.8,1.9,10.1c0.3,5.7,0.3,7.5,0.3,22s-0.1,16.2-0.3,22c-0.2,5.3-1.1,8.2-1.9,10.1c-1,2.5-2.2,4.3-4.1,6.3
		c-1.9,1.9-3.7,3.1-6.3,4.1c-1.9,0.7-4.8,1.6-10.1,1.9c-5.7,0.3-7.5,0.3-22,0.3s-16.2-0.1-22-0.3c-5.3-0.2-8.2-1.1-10.1-1.9
		c-2.5-1-4.3-2.2-6.3-4.1c-1.9-1.9-3.1-3.7-4.1-6.3c-0.7-1.9-1.6-4.8-1.9-10.1c-0.3-5.7-0.3-7.5-0.3-22s0.1-16.2,0.3-22
		c0.2-5.3,1.1-8.2,1.9-10.1c1-2.5,2.2-4.4,4.1-6.3c1.9-1.9,3.7-3.1,6.3-4.1c1.9-0.7,4.8-1.6,10.1-1.9
		C822.7-187.6,824.5-187.6,839-187.6 M839-197.4c-14.8,0-16.6,0.1-22.4,0.3c-5.8,0.3-9.7,1.2-13.2,2.5c-3.6,1.4-6.6,3.2-9.6,6.3
		c-3,3-4.9,6.1-6.3,9.6c-1.3,3.5-2.3,7.4-2.5,13.2c-0.3,5.8-0.3,7.7-0.3,22.4c0,14.8,0.1,16.6,0.3,22.4c0.3,5.8,1.2,9.7,2.5,13.2
		c1.4,3.6,3.2,6.6,6.3,9.6c3,3,6.1,4.9,9.6,6.3c3.5,1.3,7.4,2.3,13.2,2.5c5.8,0.3,7.7,0.3,22.4,0.3c14.8,0,16.6-0.1,22.4-0.3
		c5.8-0.3,9.7-1.2,13.2-2.5c3.6-1.4,6.6-3.2,9.6-6.3c3-3,4.9-6.1,6.3-9.6c1.3-3.5,2.3-7.4,2.5-13.2c0.3-5.8,0.3-7.7,0.3-22.4
		c0-14.8-0.1-16.6-0.3-22.4c-0.3-5.8-1.2-9.7-2.5-13.2c-1.4-3.6-3.2-6.6-6.3-9.6c-3-3-6.1-4.9-9.6-6.3c-3.5-1.3-7.4-2.3-13.2-2.5
		C855.6-197.4,853.8-197.4,839-197.4 M839-171c-15.4,0-27.9,12.5-27.9,27.9s12.5,27.9,27.9,27.9s27.9-12.5,27.9-27.9
		C866.9-158.5,854.4-171,839-171 M839-124.9c-10,0-18.1-8.1-18.1-18.1s8.1-18.1,18.1-18.1s18.1,8.1,18.1,18.1S849-124.9,839-124.9
		 M874.5-172.1c0-3.6-2.9-6.5-6.5-6.5s-6.5,2.9-6.5,6.5s2.9,6.5,6.5,6.5C871.6-165.5,874.5-168.5,874.5-172.1"/>
</g>
<g id="WhatsUp">
	<g>
		<path d="M99.7-0.2c55.2,0,100,44.8,100,100s-44.8,100-100,100s-100-44.8-100-100C-0.3,44.5,44.5-0.2,99.7-0.2"/>
	</g>
	<path class="st1" d="M144.9,54.3c-12-12-27.9-18.6-44.9-18.6c-35,0-63.5,28.5-63.5,63.5c0,11.2,2.9,22.1,8.5,31.7l-5,29.4l29.6-5.4
		c9.3,5.1,19.7,7.7,30.3,7.7l0,0c35,0,63.5-28.5,63.5-63.5C163.5,82.3,156.9,66.3,144.9,54.3 M100,152L100,152
		c-9.5,0-18.8-2.5-26.9-7.4l-1.9-1.1l-20,5.2l5.3-19.5l-1.3-2c-5.3-8.4-8.1-18.1-8.1-28.1c0-29.1,23.7-52.7,52.8-52.7
		c14.1,0,27.3,5.5,37.3,15.5s15.4,23.2,15.4,37.3C152.7,128.3,129.1,152,100,152 M128.9,112.5c1.6,0.8,2.6,1.2,3,1.9
		s0.4,3.8-0.9,7.5c-1.3,3.7-7.7,7.1-10.7,7.5c-2.7,0.4-6.2,0.6-10-0.6c-2.3-0.7-5.3-1.7-9-3.3c-15.9-6.9-26.3-22.9-27.1-23.9
		c-0.8-1.1-6.5-8.6-6.5-16.4c0-7.8,4.1-11.6,5.6-13.2c1.5-1.6,3.2-2,4.2-2c1.1,0,2.1,0,3,0.1c1,0,2.3-0.4,3.6,2.7
		c1.3,3.2,4.5,11,4.9,11.8s0.7,1.7,0.1,2.8c-0.5,1.1-0.8,1.7-1.6,2.6c-0.8,0.9-1.7,2.1-2.4,2.8c-0.8,0.8-1.6,1.6-0.7,3.2
		c0.9,1.6,4.1,6.8,8.8,11c6.1,5.4,11.2,7.1,12.8,7.9c1.6,0.8,2.5,0.7,3.4-0.4c0.9-1.1,4-4.6,5-6.2c1.1-1.6,2.1-1.3,3.6-0.8
		C119.5,107.8,127.3,111.7,128.9,112.5"/>
</g>
<g id="Facebook">
	<g>
		<circle cx="838" cy="-385.8" r="100"/>
	</g>
	<path class="st0" d="M849.2-318.2v-63.6h21.4l3.3-25.2l-24.6,0.4v-15.8c0-7.2,2-12.1,12.3-12.1h13.1v-22.3
		c-2.3-0.3-10.1-1.4-19.1-1c-19,1-31.9,11.6-31.9,32.8v18.3h-21.4v24.8h21.4v63.6h25.5V-318.2z"/>
</g>
</svg>
